<svg viewBox="0 0 512 512" xml:space="preserve" xmlns="http://www.w3.org/2000/svg" enable-background="new 0 0 512 512"><path d="M161.898 298.28v82.638h89.416v-96.123h-89.416zM72.092 302.966h80.436v77.952H72.092zM260.686 280.109v100.809h89.409V257.32h-89.409zM359.466 252.635v128.283h80.442V211.523h-80.442zM471.531 380.919H40.469a4.687 4.687 0 0 0 0 9.372h431.063a4.686 4.686 0 1 0-.001-9.372zM58.429 278.565a4.663 4.663 0 0 0 2.916-1.021l43.308-34.484 87.789 13.105a4.681 4.681 0 0 0 3.997-1.313l51.67-51.429 50.999 21.156a4.679 4.679 0 0 0 5.181-1.088l89.806-93.856a4.685 4.685 0 0 0-.146-6.625 4.683 4.683 0 0 0-6.625.146l-87.588 91.539-50.922-21.124a4.684 4.684 0 0 0-5.101 1.007l-52.215 51.971-87.477-13.059a4.677 4.677 0 0 0-3.61.969l-44.903 35.754a4.684 4.684 0 0 0-.747 6.583 4.668 4.668 0 0 0 3.668 1.769z" fill="#434343" class="fill-000000"></path></svg>