<svg viewBox="0 0 512 512" xml:space="preserve" xmlns="http://www.w3.org/2000/svg" enable-background="new 0 0 512 512"><path d="M256 463.515a4.998 4.998 0 0 1-2.504-.672L35.694 336.835a5 5 0 0 1 0-8.656l66.121-38.254a5 5 0 0 1 5.008 8.656l-58.64 33.926L256 452.738l207.817-120.231-58.641-33.926a5 5 0 0 1 5.008-8.656l66.121 38.254a5 5 0 0 1 0 8.656L258.504 462.843a4.998 4.998 0 0 1-2.504.672z" fill="#ffffff" class="fill-000000"></path><path d="M256 387.007a4.998 4.998 0 0 1-2.504-.672L35.694 260.328a5 5 0 0 1 0-8.656l66.121-38.253a5 5 0 0 1 5.008 8.656L48.183 256 256 376.23 463.817 256l-58.641-33.925a5 5 0 1 1 5.008-8.656l66.121 38.253a5 5 0 0 1 0 8.656L258.504 386.335a4.998 4.998 0 0 1-2.504.672z" fill="#ffffff" class="fill-000000"></path><path d="M256 310.5a4.998 4.998 0 0 1-2.504-.672L35.694 183.821a5 5 0 0 1 0-8.656L253.496 49.158a5.001 5.001 0 0 1 5.008 0l217.802 126.007a5 5 0 0 1 0 8.656L258.504 309.828a4.998 4.998 0 0 1-2.504.672zM48.183 179.493 256 299.724l207.817-120.23L256 59.262 48.183 179.493z" fill="#ffffff" class="fill-000000"></path></svg>