<svg viewBox="0 0 24 24" xml:space="preserve" xmlns="http://www.w3.org/2000/svg"><path d="M16.9 7.1c-.4-.4-1-.4-1.4 0l-8.4 8.4c-.4.4-.4 1 0 1.4.4.4 1 .4 1.4 0l8.4-8.4c.4-.4.4-1 0-1.4z" fill="#ffffff" class="fill-000000"></path><path d="M8.5 22.5 12 19c1.4-1.4 1.8-3.5 1.1-5.3l-1.7 1.7c0 .8-.2 1.6-.9 2.3L7 21.2c-1.2 1.2-3.1 1.2-4.2 0-1.2-1.2-1.2-3.1 0-4.2l3.5-3.5c.6-.6 1.5-.9 2.3-.9l1.7-1.7c-1.8-.7-3.9-.4-5.3 1.1l-3.5 3.5c-1.9 1.9-1.9 5.1 0 7 1.9 2 5.1 2 7 0zM13.4 6.4l3.5-3.5c1.2-1.2 3.1-1.2 4.2 0s1.2 3.1 0 4.2l-3.5 3.5c-.6.6-1.5.9-2.3.9l-1.7 1.7c1.8.7 3.9.3 5.3-1.1l3.5-3.5c1.9-1.9 1.9-5.1 0-7-1.9-1.9-5.1-1.9-7 0L12 5c-1.4 1.4-1.8 3.5-1.1 5.3l1.7-1.7c-.1-.8.2-1.6.8-2.2z" fill="#ffffff" class="fill-000000"></path></svg>