<svg viewBox="0 0 32 32" xmlns="http://www.w3.org/2000/svg"><path d="M313 298.014c-2.197 0-4 1.802-4 4 0 1.034.4 1.98 1.05 2.693l-4.058 5.434a3.965 3.965 0 0 0-.992-.127c-2.197 0-4 1.802-4 4 0 2.197 1.803 4 4 4s4-1.803 4-4c0-1.134-.48-2.16-1.246-2.891l3.975-5.32a3.957 3.957 0 0 0 2.167.107l2.895 4.776a4.009 4.009 0 0 0-1.791 3.328c0 2.197 1.803 4 4 4s4-1.803 4-4c0-1.134-.48-2.16-1.246-2.891l3.975-5.32c.4.135.827.21 1.271.21 2.197 0 4-1.802 4-4 0-2.197-1.803-4-4-4s-4 1.803-4 4c0 1.035.4 1.982 1.05 2.694l-4.058 5.434a3.965 3.965 0 0 0-1.265-.116l-3.055-5.043a3.993 3.993 0 0 0 1.328-2.968c0-2.198-1.803-4-4-4zm0 2c1.116 0 2 .883 2 2 0 1.116-.884 2-2 2s-2-.884-2-2c0-1.117.884-2 2-2zm14 0c1.116 0 2 .883 2 2 0 1.116-.884 2-2 2s-2-.884-2-2c0-1.117.884-2 2-2zm-22 12c1.116 0 2 .883 2 2 0 1.116-.884 2-2 2s-2-.884-2-2c0-1.117.884-2 2-2zm14 0c1.116 0 2 .883 2 2 0 1.116-.884 2-2 2s-2-.884-2-2c0-1.117.884-2 2-2z" style="-inkscape-stroke:none" transform="translate(-300 -292)" color="#000000" fill="#ffffff" fill-rule="evenodd" stroke-linecap="round" stroke-linejoin="round" stroke-miterlimit="4.1" class="fill-000000"></path></svg>